<svg width="14" height="14" viewBox="0 0 14 14" fill="none" xmlns="http://www.w3.org/2000/svg">
<path fill-rule="evenodd" clip-rule="evenodd" d="M1.94377 12.6004L0.820312 0H13.1653L12.0407 12.5984L6.98534 14L1.94377 12.6004Z" fill="#0071BC"/>
<path fill-rule="evenodd" clip-rule="evenodd" d="M7.00317 12.928L11.083 11.8056L12.0389 1.04935H7.00317V12.928Z" fill="#29ABE2"/>
<path fill-rule="evenodd" clip-rule="evenodd" d="M3.39185 5.6787L3.52718 7.22182L7.00313 5.6787V4.13307L3.39185 5.6787Z" fill="#B3B3B3"/>
<path fill-rule="evenodd" clip-rule="evenodd" d="M10.8529 2.4832L7.00317 4.13308V5.6787L10.7202 4.02632L10.8529 2.4832Z" fill="#E6E6E6"/>
<path fill-rule="evenodd" clip-rule="evenodd" d="M7.00308 9.71625L6.99114 9.71804L5.26732 9.2551L5.1547 8.02425H3.60327L3.81977 10.4491L6.9908 11.3271L7.00308 11.3242V9.71625Z" fill="#E6E6E6"/>
<path fill-rule="evenodd" clip-rule="evenodd" d="M7.00317 5.6787V7.22182H8.89048L8.71894 9.23933L7.00317 9.71758V11.3254L10.1637 10.4474L10.5799 5.6787H7.00317Z" fill="white"/>
<path fill-rule="evenodd" clip-rule="evenodd" d="M7.00313 5.6787H3.39185L3.52718 7.22182H7.00313V5.6787Z" fill="#E6E6E6"/>
<path fill-rule="evenodd" clip-rule="evenodd" d="M7.00308 4.02633V2.4832H6.9874H3.11743L3.25437 4.02633H7.00308Z" fill="#E6E6E6"/>
<path fill-rule="evenodd" clip-rule="evenodd" d="M7.00317 2.4832V4.00697V4.02633H10.7202L10.8529 2.4832H7.00317Z" fill="white"/>
</svg>
