<svg width="24" height="24" viewBox="0 0 24 24" fill="none" xmlns="http://www.w3.org/2000/svg">
<path d="M12 0.5C13.5084 0.5 15.0022 0.804659 16.3965 1.39648C17.7908 1.98835 19.0585 2.8563 20.127 3.95117C21.1954 5.04618 22.0441 6.34701 22.623 7.7793C23.2019 9.21152 23.5 10.7469 23.5 12.2979C23.5 17.502 20.2255 21.8991 15.6855 23.4912C15.6063 23.5026 15.5625 23.4988 15.5439 23.4941C15.5338 23.4916 15.5289 23.4886 15.5283 23.4883L15.5234 23.4814C15.5207 23.4767 15.5173 23.4689 15.5137 23.458C15.5058 23.4346 15.5 23.4027 15.5 23.3662V19.9961C15.5 19.2214 15.3328 18.5835 15.0742 18.0918C16.1889 17.8898 17.3244 17.5112 18.2422 16.7285C19.4171 15.7264 20.1562 14.1376 20.1562 11.6826C20.1562 10.3066 19.7262 9.16676 18.9805 8.24023C19.1529 7.64519 19.361 6.41897 18.7646 4.91895L18.6787 4.70215L18.4561 4.62891L18.3086 5.07617C18.456 4.6286 18.4556 4.62809 18.4551 4.62793H18.4541L18.4521 4.62695C18.4509 4.62656 18.4496 4.62639 18.4482 4.62598C18.4451 4.62501 18.4411 4.62411 18.4375 4.62305C18.4304 4.62095 18.4222 4.61857 18.4131 4.61621C18.3943 4.61138 18.3709 4.60565 18.3438 4.60059C18.2895 4.59046 18.2185 4.58141 18.1309 4.57715C17.955 4.5686 17.7143 4.58133 17.4053 4.64746C16.8219 4.77237 16.0003 5.08971 14.9111 5.81641C13.9789 5.5734 12.9827 5.45215 12 5.45215C11.0169 5.45215 10.0204 5.57324 9.08789 5.81641C7.99904 5.09003 7.17802 4.77235 6.59473 4.64746C6.28569 4.58133 6.04497 4.5686 5.86914 4.57715C5.78151 4.58141 5.71055 4.59046 5.65625 4.60059C5.62911 4.60565 5.60567 4.61138 5.58691 4.61621C5.57776 4.61857 5.56965 4.62095 5.5625 4.62305C5.55886 4.62411 5.55487 4.62501 5.55176 4.62598C5.55043 4.62639 5.54908 4.62656 5.54785 4.62695L5.5459 4.62793H5.54492C5.54443 4.62809 5.54378 4.62867 5.7002 5.10352L5.54395 4.62891L5.32129 4.70215L5.23535 4.91895C4.63913 6.41875 4.84614 7.6451 5.01855 8.24023C4.27308 9.16668 3.84384 10.3069 3.84375 11.6826C3.84375 14.1314 4.57997 15.7219 5.74902 16.7285C6.66634 17.5183 7.80182 17.902 8.91699 18.1055C8.78313 18.3681 8.67452 18.6722 8.60352 19.0176C8.29633 19.1252 7.89314 19.2211 7.48145 19.1846C7.01544 19.1431 6.50048 18.9319 6.07617 18.2578L5.99219 18.1172L5.99121 18.1152C5.98897 18.1112 5.98597 18.1058 5.98242 18.0996C5.97532 18.0872 5.96546 18.0701 5.95312 18.0498C5.92848 18.0093 5.89336 17.954 5.84766 17.8887C5.75625 17.758 5.6199 17.5829 5.43945 17.4043C5.0827 17.0512 4.51808 16.6504 3.75586 16.5957L3.73047 16.5938H3.70703C3.69479 16.5938 3.67799 16.5942 3.6582 16.5947C3.6189 16.5958 3.56398 16.5981 3.50195 16.6045C3.39802 16.6152 3.19678 16.6435 3.02246 16.7422C2.92962 16.7947 2.79911 16.8927 2.72461 17.0635C2.64375 17.2492 2.66493 17.4366 2.72656 17.5859C2.82993 17.8361 3.07209 18.0484 3.34961 18.2422L3.38184 18.2646L3.4082 18.2773C3.40835 18.2774 3.41167 18.2791 3.41699 18.2822C3.42782 18.2886 3.44895 18.301 3.47754 18.3213C3.53537 18.3624 3.62616 18.4347 3.73535 18.5479C3.95131 18.7717 4.24514 19.1633 4.49609 19.8066C4.49828 19.8133 4.50082 19.8212 4.50391 19.8301C4.51252 19.8549 4.52567 19.8884 4.54199 19.9287C4.57458 20.0091 4.62402 20.118 4.69434 20.2441C4.83472 20.4959 5.06184 20.8221 5.41309 21.1211C6.05224 21.665 7.04057 22.0687 8.5 21.8818V23.3662C8.49997 23.4466 8.47628 23.4801 8.47363 23.4834L8.47266 23.4844C8.47157 23.485 8.46678 23.4867 8.45703 23.4893C8.43869 23.4941 8.39638 23.4987 8.32031 23.4893C3.78385 21.9076 0.5 17.5001 0.5 12.2979C0.500019 9.16497 1.71499 6.16281 3.87305 3.95117C4.94145 2.8563 6.20924 1.98835 7.60352 1.39648C8.99779 0.804658 10.4916 0.5 12 0.5Z" fill="white" stroke="black"/>
</svg>
